<?xml version="1.0" encoding="UTF-8"?>
<svg id="_图层_1" xmlns="http://www.w3.org/2000/svg" version="1.1" viewBox="0 0 160 160">
  <!-- Generator: Adobe Illustrator 29.0.1, SVG Export Plug-In . SVG Version: 2.1.0 Build 192)  -->
  <defs>
    <style>
      .st0 {
        font-family: Arial-BoldMT, Arial;
        font-size: 80px;
        font-weight: 700;
      }

      .st0, .st1 {
        isolation: isolate;
      }

      .st0, .st2 {
        fill: #1296db;
      }
    </style>
  </defs>
  <path class="st2" d="M134,10.2h-60.6c-5.3,0-9.7,4.3-9.7,9.7v1.6h-9.9c-4.1,0-7.5,2.6-8.9,6.1h-18.9c-5.3,0-9.7,4.3-9.7,9.7v102.8c0,5.3,4.3,9.7,9.7,9.7h86c5.3,0,9.7-4.3,9.7-9.7v-7.8h12.3c5.3,0,9.7-4.3,9.7-9.7V19.9c0-5.3-4.3-9.7-9.7-9.7ZM53.8,28h30.4c1.7,0,3.1,1.4,3.1,3.1s-1.4,3.1-3.1,3.1h-30.4c-1.7,0-3.1-1.4-3.1-3.1s1.4-3.1,3.1-3.1ZM115.2,140.1c0,1.8-1.4,3.2-3.2,3.2H26c-1.8,0-3.2-1.4-3.2-3.2V37.3c0-1.8,1.4-3.2,3.2-3.2h18.8c1.3,3.8,4.8,6.5,9,6.5h30.4c4.2,0,7.7-2.7,9-6.5h18.8c1.8,0,3.2,1.4,3.2,3.2v102.8h0ZM137.2,122.7c0,1.8-1.4,3.2-3.2,3.2h-12.3V37.3c0-5.3-4.3-9.7-9.7-9.7h-18.9c-1.4-3.6-4.8-6.1-8.9-6.1h-14.1v-1.6c0-1.8,1.4-3.2,3.2-3.2h60.6c1.8,0,3.2,1.4,3.2,3.2v102.8h.1Z"/>
  <g class="st1">
    <g class="st1">
      <text class="st0" transform="translate(41.1 116.3)"><tspan x="0" y="0">C</tspan></text>
    </g>
  </g>
</svg>