<?xml version="1.0" encoding="UTF-8"?>
<svg id="_图层_1" xmlns="http://www.w3.org/2000/svg" version="1.1" viewBox="0 0 160 160">
  <!-- Generator: Adobe Illustrator 29.0.1, SVG Export Plug-In . SVG Version: 2.1.0 Build 192)  -->
  <defs>
    <style>
      .st0 {
        font-family: Arial-BoldMT, Arial;
        font-size: 66px;
        font-weight: 700;
      }

      .st0, .st1 {
        isolation: isolate;
      }

      .st0, .st2 {
        fill: #1296db;
      }
    </style>
  </defs>
  <path class="st2" d="M84.7,24v-9.3c0-5.1-4.2-9.3-9.3-9.3h-18.7c-5.1,0-9.3,4.2-9.3,9.3v9.3h-18.7v6.3h74.7v-6.3h-18.7ZM77.1,24h-22.1v-11h22v11h0ZM122,60.2v-31.6c0-2.6-2.1-4.7-4.7-4.7h-9.3v6.5h8v29.7h-53s-1.6.2-2.6,1.1c-.6.7-1,1.6-1.2,2.5v72.1H16V30.5h8v-6.5h-9.3c-2.6,0-4.7,2.1-4.7,4.7v108.8c0,2.6,2.1,4.7,4.7,4.7h44.5v8.1s0,2.7,1.2,3.8,3.3.7,3.3.7h83.2s1.4.2,2.2-.7.9-2.6.9-2.6v-87.5s-.2-1.8-.9-2.6-2.5-1.1-2.5-1.1h-24.6,0ZM65.2,148.9v-82.4h79v82.4h-79Z"/>
  <g class="st1">
    <g class="st1">
      <g class="st1">
        <text class="st0" transform="translate(82 134.7)"><tspan x="0" y="0">C</tspan></text>
      </g>
    </g>
  </g>
</svg>